<mxfile host="app.diagrams.net" modified="2022-11-06T06:18:07.768Z" agent="5.0 (Windows NT 10.0; Win64; x64) AppleWebKit/537.36 (KHTML, like Gecko) Chrome/107.0.0.0 Safari/537.36" etag="67Nc1wqeE7krL6IhYuON" version="20.5.1" type="github">
  <diagram id="R2lEEEUBdFMjLlhIrx00" name="Page-1">
    <mxGraphModel dx="1426" dy="887" grid="1" gridSize="10" guides="1" tooltips="1" connect="1" arrows="1" fold="1" page="1" pageScale="1" pageWidth="850" pageHeight="1100" math="0" shadow="0" extFonts="Permanent Marker^https://fonts.googleapis.com/css?family=Permanent+Marker">
      <root>
        <mxCell id="0" />
        <mxCell id="1" parent="0" />
        <mxCell id="hjBMN0ESbZGBYcGNyfqj-2" style="edgeStyle=orthogonalEdgeStyle;rounded=0;orthogonalLoop=1;jettySize=auto;html=1;entryX=0;entryY=0.5;entryDx=0;entryDy=0;fillColor=#B2C9AB;strokeColor=#788AA3;fontColor=#46495D;exitX=1;exitY=0.5;exitDx=0;exitDy=0;" parent="1" source="7kK_4Ma0JGCiKMvr0xMD-1" target="hjBMN0ESbZGBYcGNyfqj-1" edge="1">
          <mxGeometry relative="1" as="geometry">
            <Array as="points">
              <mxPoint x="190" y="225" />
              <mxPoint x="190" y="109" />
            </Array>
            <mxPoint x="180" y="168.5" as="sourcePoint" />
            <mxPoint x="220" y="49" as="targetPoint" />
          </mxGeometry>
        </mxCell>
        <mxCell id="hjBMN0ESbZGBYcGNyfqj-22" style="edgeStyle=orthogonalEdgeStyle;rounded=0;orthogonalLoop=1;jettySize=auto;html=1;fillColor=#B2C9AB;strokeColor=#788AA3;fontColor=#46495D;exitX=1;exitY=0.5;exitDx=0;exitDy=0;entryX=0;entryY=0.5;entryDx=0;entryDy=0;" parent="1" source="7kK_4Ma0JGCiKMvr0xMD-1" target="O8F0JCfiDlLxA4v2om1o-1" edge="1">
          <mxGeometry relative="1" as="geometry">
            <mxPoint x="140" y="335" as="targetPoint" />
            <Array as="points">
              <mxPoint x="190" y="225" />
              <mxPoint x="190" y="328" />
            </Array>
            <mxPoint x="180" y="168.5" as="sourcePoint" />
          </mxGeometry>
        </mxCell>
        <mxCell id="7kK_4Ma0JGCiKMvr0xMD-1" value="&lt;span style=&quot;font-size: 10pt&quot;&gt;&lt;font face=&quot;Times New Roman&quot;&gt;Security Application based on PPG&lt;/font&gt;&lt;/span&gt;" style="rounded=0;whiteSpace=wrap;html=1;fillColor=#B2C9AB;strokeColor=#788AA3;fontColor=#46495D;" parent="1" vertex="1">
          <mxGeometry x="50" y="205" width="120" height="40.5" as="geometry" />
        </mxCell>
        <mxCell id="hjBMN0ESbZGBYcGNyfqj-33" style="edgeStyle=orthogonalEdgeStyle;rounded=0;orthogonalLoop=1;jettySize=auto;html=1;entryX=0;entryY=0.5;entryDx=0;entryDy=0;fillColor=#B2C9AB;strokeColor=#788AA3;exitX=1;exitY=0.5;exitDx=0;exitDy=0;fontColor=#46495D;" parent="1" source="O8F0JCfiDlLxA4v2om1o-4" target="hjBMN0ESbZGBYcGNyfqj-32" edge="1">
          <mxGeometry relative="1" as="geometry">
            <mxPoint x="586.5" y="379.92999999999995" as="sourcePoint" />
            <Array as="points">
              <mxPoint x="510" y="328" />
              <mxPoint x="510" y="277" />
            </Array>
          </mxGeometry>
        </mxCell>
        <mxCell id="hjBMN0ESbZGBYcGNyfqj-52" style="edgeStyle=orthogonalEdgeStyle;rounded=0;orthogonalLoop=1;jettySize=auto;html=1;entryX=0;entryY=0.5;entryDx=0;entryDy=0;fillColor=#B2C9AB;strokeColor=#788AA3;exitX=1;exitY=0.5;exitDx=0;exitDy=0;fontColor=#46495D;" parent="1" source="O8F0JCfiDlLxA4v2om1o-4" target="hjBMN0ESbZGBYcGNyfqj-51" edge="1">
          <mxGeometry relative="1" as="geometry">
            <mxPoint x="586.5" y="379.92999999999995" as="sourcePoint" />
            <Array as="points">
              <mxPoint x="510" y="328" />
              <mxPoint x="510" y="383" />
            </Array>
          </mxGeometry>
        </mxCell>
        <mxCell id="hjBMN0ESbZGBYcGNyfqj-8" style="edgeStyle=orthogonalEdgeStyle;rounded=0;orthogonalLoop=1;jettySize=auto;html=1;entryX=0;entryY=0.5;entryDx=0;entryDy=0;fillColor=#B2C9AB;strokeColor=#788AA3;fontColor=#46495D;" parent="1" target="hjBMN0ESbZGBYcGNyfqj-6" edge="1">
          <mxGeometry relative="1" as="geometry">
            <mxPoint x="340" y="118" as="sourcePoint" />
            <Array as="points">
              <mxPoint x="340" y="108" />
              <mxPoint x="360" y="108" />
              <mxPoint x="360" y="90" />
            </Array>
          </mxGeometry>
        </mxCell>
        <mxCell id="hjBMN0ESbZGBYcGNyfqj-9" style="edgeStyle=orthogonalEdgeStyle;rounded=0;orthogonalLoop=1;jettySize=auto;html=1;entryX=0;entryY=0.5;entryDx=0;entryDy=0;fillColor=#B2C9AB;strokeColor=#788AA3;fontColor=#46495D;" parent="1" target="hjBMN0ESbZGBYcGNyfqj-7" edge="1">
          <mxGeometry relative="1" as="geometry">
            <mxPoint x="340" y="108" as="sourcePoint" />
            <Array as="points">
              <mxPoint x="340" y="108" />
              <mxPoint x="360" y="108" />
              <mxPoint x="360" y="128" />
            </Array>
          </mxGeometry>
        </mxCell>
        <mxCell id="hjBMN0ESbZGBYcGNyfqj-1" value="&lt;span style=&quot;font-size: 10pt&quot;&gt;&lt;font face=&quot;Times New Roman&quot;&gt;Secure Communication&lt;/font&gt;&lt;/span&gt;" style="rounded=0;whiteSpace=wrap;html=1;fillColor=#dae8fc;strokeColor=#6c8ebf;" parent="1" vertex="1">
          <mxGeometry x="210" y="89" width="130" height="40" as="geometry" />
        </mxCell>
        <mxCell id="hjBMN0ESbZGBYcGNyfqj-12" style="edgeStyle=orthogonalEdgeStyle;rounded=0;orthogonalLoop=1;jettySize=auto;html=1;entryX=0;entryY=0.5;entryDx=0;entryDy=0;fillColor=#B2C9AB;strokeColor=#788AA3;fontColor=#46495D;exitX=1;exitY=0.5;exitDx=0;exitDy=0;" parent="1" source="hjBMN0ESbZGBYcGNyfqj-6" target="hjBMN0ESbZGBYcGNyfqj-10" edge="1">
          <mxGeometry relative="1" as="geometry">
            <mxPoint x="490.5" y="98.0344827586207" as="sourcePoint" />
            <Array as="points">
              <mxPoint x="510" y="90" />
              <mxPoint x="510" y="34" />
            </Array>
          </mxGeometry>
        </mxCell>
        <mxCell id="hjBMN0ESbZGBYcGNyfqj-13" style="edgeStyle=orthogonalEdgeStyle;rounded=0;orthogonalLoop=1;jettySize=auto;html=1;entryX=0;entryY=0.5;entryDx=0;entryDy=0;fillColor=#B2C9AB;strokeColor=#788AA3;fontColor=#46495D;exitX=1;exitY=0.5;exitDx=0;exitDy=0;" parent="1" source="hjBMN0ESbZGBYcGNyfqj-6" target="hjBMN0ESbZGBYcGNyfqj-11" edge="1">
          <mxGeometry relative="1" as="geometry">
            <mxPoint x="490.5" y="98.0344827586207" as="sourcePoint" />
            <Array as="points">
              <mxPoint x="510" y="90" />
              <mxPoint x="510" y="143" />
            </Array>
          </mxGeometry>
        </mxCell>
        <mxCell id="hjBMN0ESbZGBYcGNyfqj-6" value="&lt;span style=&quot;font-family: &amp;#34;noto_regular&amp;#34; ; font-size: 10pt&quot;&gt;Encryption&lt;/span&gt;" style="rounded=0;whiteSpace=wrap;html=1;fillColor=#e1d5e7;strokeColor=#9673a6;" parent="1" vertex="1">
          <mxGeometry x="380" y="75" width="110" height="30" as="geometry" />
        </mxCell>
        <mxCell id="hjBMN0ESbZGBYcGNyfqj-7" value="&lt;span style=&quot;font-family: &amp;#34;noto_regular&amp;#34; ; font-size: 10pt&quot;&gt;Steganography&lt;/span&gt;" style="rounded=0;whiteSpace=wrap;html=1;fillColor=#e1d5e7;strokeColor=#9673a6;" parent="1" vertex="1">
          <mxGeometry x="380" y="113" width="110" height="30" as="geometry" />
        </mxCell>
        <mxCell id="O8F0JCfiDlLxA4v2om1o-10" style="edgeStyle=orthogonalEdgeStyle;rounded=0;orthogonalLoop=1;jettySize=auto;html=1;entryX=0;entryY=0.5;entryDx=0;entryDy=0;fillColor=#B2C9AB;strokeColor=#788AA3;fontColor=#46495D;" parent="1" target="O8F0JCfiDlLxA4v2om1o-11" edge="1">
          <mxGeometry relative="1" as="geometry">
            <mxPoint x="676.5" y="-11" as="targetPoint" />
            <mxPoint x="648.5" y="32" as="sourcePoint" />
          </mxGeometry>
        </mxCell>
        <mxCell id="O8F0JCfiDlLxA4v2om1o-13" style="edgeStyle=orthogonalEdgeStyle;rounded=0;orthogonalLoop=1;jettySize=auto;html=1;entryX=0;entryY=0.5;entryDx=0;entryDy=0;fillColor=#B2C9AB;strokeColor=#788AA3;fontColor=#46495D;" parent="1" target="O8F0JCfiDlLxA4v2om1o-12" edge="1">
          <mxGeometry relative="1" as="geometry">
            <mxPoint x="648.5" y="32" as="sourcePoint" />
          </mxGeometry>
        </mxCell>
        <mxCell id="hjBMN0ESbZGBYcGNyfqj-10" value="&lt;span style=&quot;font-family: &amp;#34;noto_regular&amp;#34; ; font-size: 10pt&quot;&gt;Generate the Entity Identifier&lt;/span&gt;" style="rounded=0;whiteSpace=wrap;html=1;fillColor=#d5e8d4;strokeColor=#82b366;" parent="1" vertex="1">
          <mxGeometry x="530" y="15" width="120" height="37" as="geometry" />
        </mxCell>
        <mxCell id="hjBMN0ESbZGBYcGNyfqj-18" style="edgeStyle=orthogonalEdgeStyle;rounded=0;orthogonalLoop=1;jettySize=auto;html=1;entryX=0;entryY=0.5;entryDx=0;entryDy=0;fillColor=#B2C9AB;strokeColor=#788AA3;fontColor=#46495D;" parent="1" source="hjBMN0ESbZGBYcGNyfqj-11" target="hjBMN0ESbZGBYcGNyfqj-14" edge="1">
          <mxGeometry relative="1" as="geometry">
            <Array as="points">
              <mxPoint x="670" y="143" />
              <mxPoint x="670" y="91" />
            </Array>
          </mxGeometry>
        </mxCell>
        <mxCell id="hjBMN0ESbZGBYcGNyfqj-19" style="edgeStyle=orthogonalEdgeStyle;rounded=0;orthogonalLoop=1;jettySize=auto;html=1;fillColor=#B2C9AB;strokeColor=#788AA3;entryX=0;entryY=0.5;entryDx=0;entryDy=0;fontColor=#46495D;" parent="1" source="hjBMN0ESbZGBYcGNyfqj-11" target="hjBMN0ESbZGBYcGNyfqj-15" edge="1">
          <mxGeometry relative="1" as="geometry">
            <Array as="points">
              <mxPoint x="670" y="143" />
              <mxPoint x="670" y="126" />
            </Array>
          </mxGeometry>
        </mxCell>
        <mxCell id="hjBMN0ESbZGBYcGNyfqj-20" style="edgeStyle=orthogonalEdgeStyle;rounded=0;orthogonalLoop=1;jettySize=auto;html=1;entryX=0;entryY=0.5;entryDx=0;entryDy=0;fillColor=#B2C9AB;strokeColor=#788AA3;fontColor=#46495D;" parent="1" source="hjBMN0ESbZGBYcGNyfqj-11" target="hjBMN0ESbZGBYcGNyfqj-16" edge="1">
          <mxGeometry relative="1" as="geometry">
            <Array as="points">
              <mxPoint x="670" y="143" />
              <mxPoint x="670" y="161" />
            </Array>
          </mxGeometry>
        </mxCell>
        <mxCell id="hjBMN0ESbZGBYcGNyfqj-21" style="edgeStyle=orthogonalEdgeStyle;rounded=0;orthogonalLoop=1;jettySize=auto;html=1;entryX=0;entryY=0.5;entryDx=0;entryDy=0;fillColor=#B2C9AB;strokeColor=#788AA3;fontColor=#46495D;" parent="1" source="hjBMN0ESbZGBYcGNyfqj-11" target="hjBMN0ESbZGBYcGNyfqj-17" edge="1">
          <mxGeometry relative="1" as="geometry">
            <Array as="points">
              <mxPoint x="670" y="143" />
              <mxPoint x="670" y="196" />
            </Array>
          </mxGeometry>
        </mxCell>
        <mxCell id="hjBMN0ESbZGBYcGNyfqj-11" value="&lt;span style=&quot;font-family: &amp;#34;noto_regular&amp;#34; ; font-size: 10pt&quot;&gt;Key Distribution Solution&lt;/span&gt;" style="rounded=0;whiteSpace=wrap;html=1;fillColor=#d5e8d4;strokeColor=#82b366;" parent="1" vertex="1">
          <mxGeometry x="530.5" y="125" width="120" height="36" as="geometry" />
        </mxCell>
        <mxCell id="hjBMN0ESbZGBYcGNyfqj-14" value="&lt;span style=&quot;font-size: 10pt&quot;&gt;&lt;font face=&quot;Times New Roman&quot;&gt;Fuzzy Commitment Scheme&lt;/font&gt;&lt;/span&gt;" style="rounded=0;whiteSpace=wrap;html=1;fillColor=#b0e3e6;strokeColor=#0e8088;" parent="1" vertex="1">
          <mxGeometry x="691" y="76" width="120" height="30" as="geometry" />
        </mxCell>
        <mxCell id="hjBMN0ESbZGBYcGNyfqj-15" value="&lt;span style=&quot;font-family: &amp;#34;noto_regular&amp;#34; ; font-size: 10pt&quot;&gt;Fuzzy Vault Scheme&lt;/span&gt;" style="rounded=0;whiteSpace=wrap;html=1;fillColor=#b0e3e6;strokeColor=#0e8088;" parent="1" vertex="1">
          <mxGeometry x="691" y="111" width="120" height="30" as="geometry" />
        </mxCell>
        <mxCell id="hjBMN0ESbZGBYcGNyfqj-16" value="&lt;span style=&quot;font-size: 10pt&quot;&gt;&lt;font face=&quot;Times New Roman&quot;&gt;Ordered Key Agreement&lt;/font&gt;&lt;/span&gt;" style="rounded=0;whiteSpace=wrap;html=1;fillColor=#b0e3e6;strokeColor=#0e8088;" parent="1" vertex="1">
          <mxGeometry x="690.5" y="146" width="120" height="30" as="geometry" />
        </mxCell>
        <mxCell id="hjBMN0ESbZGBYcGNyfqj-17" value="&lt;span style=&quot;font-family: &amp;#34;noto_regular&amp;#34; ; font-size: 10pt&quot;&gt;Energy-Efficient Key Agreement&lt;/span&gt;" style="rounded=0;whiteSpace=wrap;html=1;fillColor=#b0e3e6;strokeColor=#0e8088;" parent="1" vertex="1">
          <mxGeometry x="690" y="181" width="120" height="30" as="geometry" />
        </mxCell>
        <mxCell id="hjBMN0ESbZGBYcGNyfqj-32" value="&lt;font face=&quot;noto_regular&quot;&gt;&lt;span style=&quot;font-size: 13.3333px&quot;&gt;External Environment&lt;/span&gt;&lt;/font&gt;" style="rounded=0;whiteSpace=wrap;html=1;fillColor=#d5e8d4;strokeColor=#82b366;" parent="1" vertex="1">
          <mxGeometry x="529.5" y="259" width="120" height="37" as="geometry" />
        </mxCell>
        <mxCell id="hjBMN0ESbZGBYcGNyfqj-42" style="edgeStyle=orthogonalEdgeStyle;rounded=0;orthogonalLoop=1;jettySize=auto;html=1;entryX=0;entryY=0.5;entryDx=0;entryDy=0;fillColor=#B2C9AB;strokeColor=#788AA3;exitX=1;exitY=0.5;exitDx=0;exitDy=0;fontColor=#46495D;" parent="1" source="hjBMN0ESbZGBYcGNyfqj-32" target="hjBMN0ESbZGBYcGNyfqj-41" edge="1">
          <mxGeometry relative="1" as="geometry">
            <mxPoint x="686.5" y="341.8750000000001" as="sourcePoint" />
          </mxGeometry>
        </mxCell>
        <mxCell id="hjBMN0ESbZGBYcGNyfqj-44" style="edgeStyle=orthogonalEdgeStyle;rounded=0;orthogonalLoop=1;jettySize=auto;html=1;entryX=0;entryY=0.5;entryDx=0;entryDy=0;fillColor=#B2C9AB;strokeColor=#788AA3;exitX=1;exitY=0.5;exitDx=0;exitDy=0;fontColor=#46495D;" parent="1" source="hjBMN0ESbZGBYcGNyfqj-32" target="hjBMN0ESbZGBYcGNyfqj-43" edge="1">
          <mxGeometry relative="1" as="geometry">
            <mxPoint x="686.5" y="341.8750000000001" as="sourcePoint" />
          </mxGeometry>
        </mxCell>
        <mxCell id="hjBMN0ESbZGBYcGNyfqj-46" style="edgeStyle=orthogonalEdgeStyle;rounded=0;orthogonalLoop=1;jettySize=auto;html=1;entryX=0;entryY=0.5;entryDx=0;entryDy=0;fillColor=#B2C9AB;strokeColor=#788AA3;exitX=1;exitY=0.5;exitDx=0;exitDy=0;fontColor=#46495D;" parent="1" source="hjBMN0ESbZGBYcGNyfqj-32" target="hjBMN0ESbZGBYcGNyfqj-45" edge="1">
          <mxGeometry relative="1" as="geometry">
            <mxPoint x="686.5" y="341.8750000000001" as="sourcePoint" />
          </mxGeometry>
        </mxCell>
        <mxCell id="hjBMN0ESbZGBYcGNyfqj-41" value="&lt;font face=&quot;noto_regular&quot;&gt;&lt;span style=&quot;font-size: 13.3333px&quot;&gt;Motion Artifacts&lt;/span&gt;&lt;/font&gt;" style="rounded=0;whiteSpace=wrap;html=1;fillColor=#b0e3e6;strokeColor=#0e8088;" parent="1" vertex="1">
          <mxGeometry x="690" y="228" width="119.5" height="30" as="geometry" />
        </mxCell>
        <mxCell id="hjBMN0ESbZGBYcGNyfqj-43" value="&lt;font face=&quot;noto_regular&quot;&gt;&lt;span style=&quot;font-size: 13.3333px&quot;&gt;Lighting Conditions&lt;/span&gt;&lt;/font&gt;" style="rounded=0;whiteSpace=wrap;html=1;fillColor=#b0e3e6;strokeColor=#0e8088;" parent="1" vertex="1">
          <mxGeometry x="690" y="262" width="119.5" height="30" as="geometry" />
        </mxCell>
        <mxCell id="hjBMN0ESbZGBYcGNyfqj-45" value="&lt;font face=&quot;noto_regular&quot;&gt;&lt;span style=&quot;font-size: 13.3333px&quot;&gt;Slight Variation of device&lt;/span&gt;&lt;/font&gt;" style="rounded=0;whiteSpace=wrap;html=1;fillColor=#b0e3e6;strokeColor=#0e8088;" parent="1" vertex="1">
          <mxGeometry x="690" y="296" width="119.5" height="32" as="geometry" />
        </mxCell>
        <mxCell id="P1gJU2RYVf4zMhqUEynG-3" style="edgeStyle=orthogonalEdgeStyle;rounded=0;orthogonalLoop=1;jettySize=auto;html=1;entryX=0;entryY=0.5;entryDx=0;entryDy=0;fillColor=#dae8fc;strokeColor=#788AA3;" parent="1" source="hjBMN0ESbZGBYcGNyfqj-51" target="P1gJU2RYVf4zMhqUEynG-2" edge="1">
          <mxGeometry relative="1" as="geometry">
            <Array as="points">
              <mxPoint x="670" y="383" />
              <mxPoint x="670" y="418" />
            </Array>
          </mxGeometry>
        </mxCell>
        <mxCell id="hjBMN0ESbZGBYcGNyfqj-51" value="&lt;p&gt;&lt;font face=&quot;noto_regular&quot;&gt;&lt;span style=&quot;font-size: 13.3333px&quot;&gt;Internal Environment&lt;/span&gt;&lt;/font&gt;&lt;br&gt;&lt;/p&gt;" style="rounded=0;whiteSpace=wrap;html=1;fillColor=#d5e8d4;strokeColor=#82b366;" parent="1" vertex="1">
          <mxGeometry x="529" y="368" width="120.5" height="30" as="geometry" />
        </mxCell>
        <mxCell id="b4B3xjfFz9crl8QR97iu-2" style="edgeStyle=orthogonalEdgeStyle;rounded=0;orthogonalLoop=1;jettySize=auto;html=1;entryX=0;entryY=0.5;entryDx=0;entryDy=0;fillColor=#dae8fc;strokeColor=#788AA3;" parent="1" source="O8F0JCfiDlLxA4v2om1o-1" target="b4B3xjfFz9crl8QR97iu-1" edge="1">
          <mxGeometry relative="1" as="geometry" />
        </mxCell>
        <mxCell id="b4B3xjfFz9crl8QR97iu-9" style="edgeStyle=orthogonalEdgeStyle;rounded=0;orthogonalLoop=1;jettySize=auto;html=1;exitX=1;exitY=0.5;exitDx=0;exitDy=0;entryX=0;entryY=0.5;entryDx=0;entryDy=0;strokeColor=#788AA3;" parent="1" source="O8F0JCfiDlLxA4v2om1o-1" target="O8F0JCfiDlLxA4v2om1o-4" edge="1">
          <mxGeometry relative="1" as="geometry" />
        </mxCell>
        <mxCell id="How9pRoRXHg1b7DyR9z6-4" style="edgeStyle=orthogonalEdgeStyle;orthogonalLoop=1;jettySize=auto;html=1;entryX=0;entryY=0.5;entryDx=0;entryDy=0;shadow=0;fillColor=#dae8fc;rounded=0;strokeColor=#788AA3;" parent="1" source="O8F0JCfiDlLxA4v2om1o-1" target="How9pRoRXHg1b7DyR9z6-1" edge="1">
          <mxGeometry relative="1" as="geometry" />
        </mxCell>
        <mxCell id="O8F0JCfiDlLxA4v2om1o-1" value="&lt;font face=&quot;Times New Roman&quot;&gt;User&amp;nbsp;&lt;span style=&quot;font-size: 10pt&quot;&gt;Authentication&lt;/span&gt;&lt;/font&gt;" style="rounded=0;whiteSpace=wrap;html=1;fontSize=13;fillColor=#dae8fc;strokeColor=#6c8ebf;" parent="1" vertex="1">
          <mxGeometry x="209" y="308" width="130" height="40" as="geometry" />
        </mxCell>
        <mxCell id="O8F0JCfiDlLxA4v2om1o-4" value="&lt;font face=&quot;Times New Roman&quot;&gt;Resist Noise&lt;/font&gt;" style="rounded=0;whiteSpace=wrap;html=1;fontSize=13;fillColor=#e1d5e7;strokeColor=#9673a6;" parent="1" vertex="1">
          <mxGeometry x="379" y="313" width="110" height="30" as="geometry" />
        </mxCell>
        <mxCell id="O8F0JCfiDlLxA4v2om1o-19" style="edgeStyle=orthogonalEdgeStyle;rounded=0;orthogonalLoop=1;jettySize=auto;html=1;entryX=0;entryY=0.5;entryDx=0;entryDy=0;fillColor=#B2C9AB;strokeColor=#788AA3;fontColor=#46495D;" parent="1" edge="1">
          <mxGeometry relative="1" as="geometry">
            <mxPoint x="650" y="475" as="sourcePoint" />
            <Array as="points">
              <mxPoint x="670" y="475" />
              <mxPoint x="670" y="459" />
            </Array>
            <mxPoint x="690.5" y="459" as="targetPoint" />
          </mxGeometry>
        </mxCell>
        <mxCell id="O8F0JCfiDlLxA4v2om1o-20" style="edgeStyle=orthogonalEdgeStyle;rounded=0;orthogonalLoop=1;jettySize=auto;html=1;entryX=0;entryY=0.5;entryDx=0;entryDy=0;fillColor=#B2C9AB;strokeColor=#788AA3;fontColor=#46495D;exitX=1.001;exitY=0.474;exitDx=0;exitDy=0;exitPerimeter=0;" parent="1" edge="1">
          <mxGeometry relative="1" as="geometry">
            <Array as="points">
              <mxPoint x="650" y="475" />
              <mxPoint x="670" y="475" />
              <mxPoint x="670" y="491" />
            </Array>
            <mxPoint x="649.6205" y="473.22" as="sourcePoint" />
            <mxPoint x="690.5" y="490.5" as="targetPoint" />
          </mxGeometry>
        </mxCell>
        <mxCell id="O8F0JCfiDlLxA4v2om1o-6" value="&lt;font face=&quot;Times New Roman&quot;&gt;Muti-factor&lt;/font&gt;" style="rounded=0;whiteSpace=wrap;html=1;fontSize=13;fillColor=#d5e8d4;strokeColor=#82b366;" parent="1" vertex="1">
          <mxGeometry x="529" y="461" width="120.5" height="30" as="geometry" />
        </mxCell>
        <mxCell id="O8F0JCfiDlLxA4v2om1o-11" value="&lt;font face=&quot;Times New Roman&quot;&gt;&lt;span style=&quot;font-size: 10pt&quot;&gt;Time-&lt;/span&gt;&lt;span style=&quot;font-size: 13.3333px&quot;&gt;domain&lt;/span&gt;&lt;br&gt;&lt;/font&gt;" style="rounded=0;whiteSpace=wrap;html=1;fillColor=#b0e3e6;strokeColor=#0e8088;" parent="1" vertex="1">
          <mxGeometry x="690" width="120" height="30" as="geometry" />
        </mxCell>
        <mxCell id="O8F0JCfiDlLxA4v2om1o-12" value="&lt;font face=&quot;Times New Roman&quot;&gt;&lt;span style=&quot;font-size: 13.3333px&quot;&gt;Frequency-domain&lt;/span&gt;&lt;br&gt;&lt;/font&gt;" style="rounded=0;whiteSpace=wrap;html=1;fillColor=#b0e3e6;strokeColor=#0e8088;" parent="1" vertex="1">
          <mxGeometry x="690" y="34" width="120" height="30" as="geometry" />
        </mxCell>
        <mxCell id="O8F0JCfiDlLxA4v2om1o-16" value="&lt;font face=&quot;Times New Roman&quot;&gt;With&amp;nbsp;ECG&lt;/font&gt;" style="whiteSpace=wrap;html=1;rounded=0;fontSize=13;strokeColor=#0e8088;fillColor=#b0e3e6;" parent="1" vertex="1">
          <mxGeometry x="690.5" y="443" width="119.5" height="30" as="geometry" />
        </mxCell>
        <mxCell id="O8F0JCfiDlLxA4v2om1o-17" value="&lt;font face=&quot;Times New Roman&quot;&gt;With&amp;nbsp;Face&lt;/font&gt;" style="whiteSpace=wrap;html=1;rounded=0;fontSize=13;strokeColor=#0e8088;fillColor=#b0e3e6;" parent="1" vertex="1">
          <mxGeometry x="690.5" y="478" width="119.5" height="27" as="geometry" />
        </mxCell>
        <mxCell id="9mRMOqYm-txZokKRFZZr-3" value="&lt;font face=&quot;noto_regular&quot;&gt;&lt;span style=&quot;font-size: 13.3333px&quot;&gt;Long-term&lt;/span&gt;&lt;/font&gt;" style="rounded=0;whiteSpace=wrap;html=1;fillColor=#b0e3e6;strokeColor=#0e8088;" parent="1" vertex="1">
          <mxGeometry x="689.5" y="333" width="119.5" height="30" as="geometry" />
        </mxCell>
        <mxCell id="9mRMOqYm-txZokKRFZZr-4" style="edgeStyle=orthogonalEdgeStyle;rounded=0;orthogonalLoop=1;jettySize=auto;html=1;fillColor=#B2C9AB;exitX=1;exitY=0.5;exitDx=0;exitDy=0;fontColor=#46495D;entryX=0;entryY=0.5;entryDx=0;entryDy=0;strokeColor=#788AA3;" parent="1" source="hjBMN0ESbZGBYcGNyfqj-51" target="9mRMOqYm-txZokKRFZZr-3" edge="1">
          <mxGeometry relative="1" as="geometry">
            <mxPoint x="676.5" y="352.68500000000006" as="sourcePoint" />
            <mxPoint x="721.5" y="384.88" as="targetPoint" />
            <Array as="points">
              <mxPoint x="670" y="383" />
              <mxPoint x="670" y="348" />
            </Array>
          </mxGeometry>
        </mxCell>
        <mxCell id="9mRMOqYm-txZokKRFZZr-5" value="&lt;font face=&quot;noto_regular&quot;&gt;&lt;span style=&quot;font-size: 13.3333px&quot;&gt;Emotion&lt;/span&gt;&lt;/font&gt;" style="rounded=0;whiteSpace=wrap;html=1;fillColor=#b0e3e6;strokeColor=#0e8088;" parent="1" vertex="1">
          <mxGeometry x="689.5" y="368" width="119.5" height="30" as="geometry" />
        </mxCell>
        <mxCell id="9mRMOqYm-txZokKRFZZr-6" style="edgeStyle=orthogonalEdgeStyle;rounded=0;orthogonalLoop=1;jettySize=auto;html=1;fillColor=#B2C9AB;strokeColor=#788AA3;exitX=1;exitY=0.5;exitDx=0;exitDy=0;fontColor=#46495D;entryX=0;entryY=0.5;entryDx=0;entryDy=0;" parent="1" source="hjBMN0ESbZGBYcGNyfqj-51" target="9mRMOqYm-txZokKRFZZr-5" edge="1">
          <mxGeometry relative="1" as="geometry">
            <mxPoint x="666.5" y="371.7499999999999" as="sourcePoint" />
            <mxPoint x="696.5" y="410.81000000000006" as="targetPoint" />
          </mxGeometry>
        </mxCell>
        <mxCell id="b4B3xjfFz9crl8QR97iu-1" value="&lt;font face=&quot;Times New Roman&quot;&gt;Pattern Recognition&lt;/font&gt;" style="rounded=0;whiteSpace=wrap;html=1;fontSize=13;fillColor=#e1d5e7;strokeColor=#9673a6;" parent="1" vertex="1">
          <mxGeometry x="379" y="200" width="110" height="30" as="geometry" />
        </mxCell>
        <mxCell id="b4B3xjfFz9crl8QR97iu-11" value="&lt;span style=&quot;font-family: &amp;#34;noto_regular&amp;#34; ; font-size: 10pt&quot;&gt;Cancelable Templates&lt;/span&gt;" style="rounded=0;whiteSpace=wrap;html=1;fillColor=#d5e8d4;strokeColor=#82b366;" parent="1" vertex="1">
          <mxGeometry x="529.5" y="403" width="120.5" height="30" as="geometry" />
        </mxCell>
        <mxCell id="How9pRoRXHg1b7DyR9z6-5" style="edgeStyle=orthogonalEdgeStyle;rounded=0;orthogonalLoop=1;jettySize=auto;html=1;entryX=0;entryY=0.5;entryDx=0;entryDy=0;shadow=0;fillColor=#dae8fc;strokeColor=#788AA3;" parent="1" edge="1">
          <mxGeometry relative="1" as="geometry">
            <mxPoint x="489" y="447" as="sourcePoint" />
            <mxPoint x="529" y="476" as="targetPoint" />
            <Array as="points">
              <mxPoint x="510" y="447" />
              <mxPoint x="510" y="476" />
            </Array>
          </mxGeometry>
        </mxCell>
        <mxCell id="How9pRoRXHg1b7DyR9z6-6" style="edgeStyle=orthogonalEdgeStyle;rounded=0;orthogonalLoop=1;jettySize=auto;html=1;entryX=0;entryY=0.5;entryDx=0;entryDy=0;shadow=0;fillColor=#dae8fc;strokeColor=#788AA3;" parent="1" source="How9pRoRXHg1b7DyR9z6-1" target="b4B3xjfFz9crl8QR97iu-11" edge="1">
          <mxGeometry relative="1" as="geometry">
            <Array as="points">
              <mxPoint x="510" y="447" />
              <mxPoint x="510" y="418" />
            </Array>
          </mxGeometry>
        </mxCell>
        <mxCell id="How9pRoRXHg1b7DyR9z6-1" value="&lt;font face=&quot;Times New Roman&quot;&gt;Resist Attack&lt;/font&gt;" style="rounded=0;whiteSpace=wrap;html=1;fontSize=13;fillColor=#e1d5e7;strokeColor=#9673a6;" parent="1" vertex="1">
          <mxGeometry x="379" y="432" width="110" height="30" as="geometry" />
        </mxCell>
        <mxCell id="P1gJU2RYVf4zMhqUEynG-2" value="&lt;font face=&quot;noto_regular&quot;&gt;&lt;span style=&quot;font-size: 13.3333px&quot;&gt;Exercise&lt;/span&gt;&lt;/font&gt;" style="rounded=0;whiteSpace=wrap;html=1;fillColor=#b0e3e6;strokeColor=#0e8088;" parent="1" vertex="1">
          <mxGeometry x="690" y="403" width="119.5" height="30" as="geometry" />
        </mxCell>
        <mxCell id="SGGFD_9R_HXyIy6GRMr9-72" style="edgeStyle=orthogonalEdgeStyle;rounded=0;orthogonalLoop=1;jettySize=auto;html=1;entryX=0;entryY=0.5;entryDx=0;entryDy=0;" edge="1" parent="1" source="SGGFD_9R_HXyIy6GRMr9-3" target="SGGFD_9R_HXyIy6GRMr9-8">
          <mxGeometry relative="1" as="geometry" />
        </mxCell>
        <mxCell id="SGGFD_9R_HXyIy6GRMr9-73" style="edgeStyle=orthogonalEdgeStyle;rounded=0;orthogonalLoop=1;jettySize=auto;html=1;entryX=0;entryY=0.5;entryDx=0;entryDy=0;" edge="1" parent="1" source="SGGFD_9R_HXyIy6GRMr9-3" target="SGGFD_9R_HXyIy6GRMr9-37">
          <mxGeometry relative="1" as="geometry" />
        </mxCell>
        <mxCell id="SGGFD_9R_HXyIy6GRMr9-3" value="&lt;span style=&quot;font-size: 10pt&quot;&gt;&lt;font face=&quot;Times New Roman&quot;&gt;Security Application based on PPG&lt;/font&gt;&lt;/span&gt;" style="rounded=0;whiteSpace=wrap;html=1;fillColor=#B2C9AB;strokeColor=#788AA3;fontColor=#46495D;" vertex="1" parent="1">
          <mxGeometry x="45" y="815" width="120" height="40.5" as="geometry" />
        </mxCell>
        <mxCell id="SGGFD_9R_HXyIy6GRMr9-99" style="edgeStyle=orthogonalEdgeStyle;rounded=0;orthogonalLoop=1;jettySize=auto;html=1;entryX=0;entryY=0.5;entryDx=0;entryDy=0;" edge="1" parent="1" source="SGGFD_9R_HXyIy6GRMr9-8" target="SGGFD_9R_HXyIy6GRMr9-11">
          <mxGeometry relative="1" as="geometry" />
        </mxCell>
        <mxCell id="SGGFD_9R_HXyIy6GRMr9-100" style="edgeStyle=orthogonalEdgeStyle;rounded=0;orthogonalLoop=1;jettySize=auto;html=1;entryX=0;entryY=0.5;entryDx=0;entryDy=0;" edge="1" parent="1" source="SGGFD_9R_HXyIy6GRMr9-8" target="SGGFD_9R_HXyIy6GRMr9-12">
          <mxGeometry relative="1" as="geometry" />
        </mxCell>
        <mxCell id="SGGFD_9R_HXyIy6GRMr9-8" value="&lt;span style=&quot;font-size: 10pt&quot;&gt;&lt;font face=&quot;Times New Roman&quot;&gt;Secure Communication&lt;/font&gt;&lt;/span&gt;" style="rounded=0;whiteSpace=wrap;html=1;fillColor=#dae8fc;strokeColor=#6c8ebf;" vertex="1" parent="1">
          <mxGeometry x="205" y="699" width="130" height="40" as="geometry" />
        </mxCell>
        <mxCell id="SGGFD_9R_HXyIy6GRMr9-79" style="edgeStyle=orthogonalEdgeStyle;rounded=0;orthogonalLoop=1;jettySize=auto;html=1;entryX=0;entryY=0.5;entryDx=0;entryDy=0;fillColor=#dae8fc;strokeColor=#6c8ebf;" edge="1" parent="1" source="SGGFD_9R_HXyIy6GRMr9-11" target="SGGFD_9R_HXyIy6GRMr9-15">
          <mxGeometry relative="1" as="geometry" />
        </mxCell>
        <mxCell id="SGGFD_9R_HXyIy6GRMr9-80" style="edgeStyle=orthogonalEdgeStyle;rounded=0;orthogonalLoop=1;jettySize=auto;html=1;entryX=0;entryY=0.5;entryDx=0;entryDy=0;fillColor=#dae8fc;strokeColor=#6c8ebf;" edge="1" parent="1" source="SGGFD_9R_HXyIy6GRMr9-11" target="SGGFD_9R_HXyIy6GRMr9-20">
          <mxGeometry relative="1" as="geometry" />
        </mxCell>
        <mxCell id="SGGFD_9R_HXyIy6GRMr9-11" value="&lt;span style=&quot;font-family: &amp;#34;noto_regular&amp;#34; ; font-size: 10pt&quot;&gt;Encryption&lt;/span&gt;" style="rounded=0;whiteSpace=wrap;html=1;fillColor=#e1d5e7;strokeColor=#9673a6;" vertex="1" parent="1">
          <mxGeometry x="375" y="660" width="110" height="30" as="geometry" />
        </mxCell>
        <mxCell id="SGGFD_9R_HXyIy6GRMr9-12" value="&lt;span style=&quot;font-family: &amp;#34;noto_regular&amp;#34; ; font-size: 10pt&quot;&gt;Steganography&lt;/span&gt;" style="rounded=0;whiteSpace=wrap;html=1;fillColor=#e1d5e7;strokeColor=#9673a6;" vertex="1" parent="1">
          <mxGeometry x="375" y="746" width="110" height="30" as="geometry" />
        </mxCell>
        <mxCell id="SGGFD_9R_HXyIy6GRMr9-77" style="edgeStyle=orthogonalEdgeStyle;rounded=0;orthogonalLoop=1;jettySize=auto;html=1;entryX=0;entryY=0.5;entryDx=0;entryDy=0;fillColor=#dae8fc;strokeColor=#6c8ebf;" edge="1" parent="1" source="SGGFD_9R_HXyIy6GRMr9-15" target="SGGFD_9R_HXyIy6GRMr9-42">
          <mxGeometry relative="1" as="geometry" />
        </mxCell>
        <mxCell id="SGGFD_9R_HXyIy6GRMr9-78" style="edgeStyle=orthogonalEdgeStyle;rounded=0;orthogonalLoop=1;jettySize=auto;html=1;fillColor=#dae8fc;strokeColor=#6c8ebf;" edge="1" parent="1" source="SGGFD_9R_HXyIy6GRMr9-15" target="SGGFD_9R_HXyIy6GRMr9-43">
          <mxGeometry relative="1" as="geometry" />
        </mxCell>
        <mxCell id="SGGFD_9R_HXyIy6GRMr9-15" value="&lt;span style=&quot;font-family: &amp;#34;noto_regular&amp;#34; ; font-size: 10pt&quot;&gt;Generate the Entity Identifier&lt;/span&gt;" style="rounded=0;whiteSpace=wrap;html=1;fillColor=#d5e8d4;strokeColor=#82b366;" vertex="1" parent="1">
          <mxGeometry x="525" y="624" width="120" height="37" as="geometry" />
        </mxCell>
        <mxCell id="SGGFD_9R_HXyIy6GRMr9-81" style="edgeStyle=orthogonalEdgeStyle;rounded=0;orthogonalLoop=1;jettySize=auto;html=1;entryX=0;entryY=0.5;entryDx=0;entryDy=0;fillColor=#dae8fc;strokeColor=#6c8ebf;" edge="1" parent="1" source="SGGFD_9R_HXyIy6GRMr9-20" target="SGGFD_9R_HXyIy6GRMr9-21">
          <mxGeometry relative="1" as="geometry" />
        </mxCell>
        <mxCell id="SGGFD_9R_HXyIy6GRMr9-82" style="edgeStyle=orthogonalEdgeStyle;rounded=0;orthogonalLoop=1;jettySize=auto;html=1;entryX=0;entryY=0.5;entryDx=0;entryDy=0;fillColor=#dae8fc;strokeColor=#6c8ebf;" edge="1" parent="1" source="SGGFD_9R_HXyIy6GRMr9-20" target="SGGFD_9R_HXyIy6GRMr9-22">
          <mxGeometry relative="1" as="geometry" />
        </mxCell>
        <mxCell id="SGGFD_9R_HXyIy6GRMr9-83" style="edgeStyle=orthogonalEdgeStyle;rounded=0;orthogonalLoop=1;jettySize=auto;html=1;entryX=0;entryY=0.5;entryDx=0;entryDy=0;fillColor=#dae8fc;strokeColor=#6c8ebf;" edge="1" parent="1" source="SGGFD_9R_HXyIy6GRMr9-20" target="SGGFD_9R_HXyIy6GRMr9-23">
          <mxGeometry relative="1" as="geometry" />
        </mxCell>
        <mxCell id="SGGFD_9R_HXyIy6GRMr9-84" style="edgeStyle=orthogonalEdgeStyle;rounded=0;orthogonalLoop=1;jettySize=auto;html=1;entryX=0;entryY=0.5;entryDx=0;entryDy=0;fillColor=#dae8fc;strokeColor=#6c8ebf;" edge="1" parent="1" source="SGGFD_9R_HXyIy6GRMr9-20" target="SGGFD_9R_HXyIy6GRMr9-24">
          <mxGeometry relative="1" as="geometry" />
        </mxCell>
        <mxCell id="SGGFD_9R_HXyIy6GRMr9-20" value="&lt;span style=&quot;font-family: &amp;#34;noto_regular&amp;#34; ; font-size: 10pt&quot;&gt;Key Distribution Solution&lt;/span&gt;" style="rounded=0;whiteSpace=wrap;html=1;fillColor=#d5e8d4;strokeColor=#82b366;" vertex="1" parent="1">
          <mxGeometry x="525.5" y="701" width="120" height="36" as="geometry" />
        </mxCell>
        <mxCell id="SGGFD_9R_HXyIy6GRMr9-21" value="&lt;span style=&quot;font-size: 10pt&quot;&gt;&lt;font face=&quot;Times New Roman&quot;&gt;Fuzzy Commitment Scheme&lt;/font&gt;&lt;/span&gt;" style="rounded=0;whiteSpace=wrap;html=1;fillColor=#b0e3e6;strokeColor=#0e8088;" vertex="1" parent="1">
          <mxGeometry x="686" y="686" width="120" height="30" as="geometry" />
        </mxCell>
        <mxCell id="SGGFD_9R_HXyIy6GRMr9-22" value="&lt;span style=&quot;font-family: &amp;#34;noto_regular&amp;#34; ; font-size: 10pt&quot;&gt;Fuzzy Vault Scheme&lt;/span&gt;" style="rounded=0;whiteSpace=wrap;html=1;fillColor=#b0e3e6;strokeColor=#0e8088;" vertex="1" parent="1">
          <mxGeometry x="686" y="720" width="120" height="30" as="geometry" />
        </mxCell>
        <mxCell id="SGGFD_9R_HXyIy6GRMr9-23" value="&lt;span style=&quot;font-size: 10pt&quot;&gt;&lt;font face=&quot;Times New Roman&quot;&gt;Ordered Key Agreement&lt;/font&gt;&lt;/span&gt;" style="rounded=0;whiteSpace=wrap;html=1;fillColor=#b0e3e6;strokeColor=#0e8088;" vertex="1" parent="1">
          <mxGeometry x="685.5" y="754" width="120" height="30" as="geometry" />
        </mxCell>
        <mxCell id="SGGFD_9R_HXyIy6GRMr9-24" value="&lt;span style=&quot;font-family: &amp;#34;noto_regular&amp;#34; ; font-size: 10pt&quot;&gt;Energy-Efficient Key Agreement&lt;/span&gt;" style="rounded=0;whiteSpace=wrap;html=1;fillColor=#b0e3e6;strokeColor=#0e8088;" vertex="1" parent="1">
          <mxGeometry x="685" y="788" width="120" height="30" as="geometry" />
        </mxCell>
        <mxCell id="SGGFD_9R_HXyIy6GRMr9-89" style="edgeStyle=orthogonalEdgeStyle;rounded=0;orthogonalLoop=1;jettySize=auto;html=1;entryX=0;entryY=0.5;entryDx=0;entryDy=0;fillColor=#dae8fc;strokeColor=#6c8ebf;" edge="1" parent="1" source="SGGFD_9R_HXyIy6GRMr9-25" target="SGGFD_9R_HXyIy6GRMr9-29">
          <mxGeometry relative="1" as="geometry" />
        </mxCell>
        <mxCell id="SGGFD_9R_HXyIy6GRMr9-90" style="edgeStyle=orthogonalEdgeStyle;rounded=0;orthogonalLoop=1;jettySize=auto;html=1;entryX=0;entryY=0.5;entryDx=0;entryDy=0;fillColor=#dae8fc;strokeColor=#6c8ebf;" edge="1" parent="1" source="SGGFD_9R_HXyIy6GRMr9-25" target="SGGFD_9R_HXyIy6GRMr9-30">
          <mxGeometry relative="1" as="geometry" />
        </mxCell>
        <mxCell id="SGGFD_9R_HXyIy6GRMr9-91" style="edgeStyle=orthogonalEdgeStyle;rounded=0;orthogonalLoop=1;jettySize=auto;html=1;entryX=0;entryY=0.5;entryDx=0;entryDy=0;fillColor=#dae8fc;strokeColor=#6c8ebf;" edge="1" parent="1" source="SGGFD_9R_HXyIy6GRMr9-25" target="SGGFD_9R_HXyIy6GRMr9-31">
          <mxGeometry relative="1" as="geometry" />
        </mxCell>
        <mxCell id="SGGFD_9R_HXyIy6GRMr9-25" value="&lt;font face=&quot;noto_regular&quot;&gt;&lt;span style=&quot;font-size: 13.3333px&quot;&gt;External Environment&lt;/span&gt;&lt;/font&gt;" style="rounded=0;whiteSpace=wrap;html=1;fillColor=#d5e8d4;strokeColor=#82b366;" vertex="1" parent="1">
          <mxGeometry x="525.5" y="885.5" width="120" height="37" as="geometry" />
        </mxCell>
        <mxCell id="SGGFD_9R_HXyIy6GRMr9-29" value="&lt;font face=&quot;noto_regular&quot;&gt;&lt;span style=&quot;font-size: 13.3333px&quot;&gt;Motion Artifacts&lt;/span&gt;&lt;/font&gt;" style="rounded=0;whiteSpace=wrap;html=1;fillColor=#b0e3e6;strokeColor=#0e8088;" vertex="1" parent="1">
          <mxGeometry x="685" y="835" width="119.5" height="30" as="geometry" />
        </mxCell>
        <mxCell id="SGGFD_9R_HXyIy6GRMr9-30" value="&lt;font face=&quot;noto_regular&quot;&gt;&lt;span style=&quot;font-size: 13.3333px&quot;&gt;Lighting Conditions&lt;/span&gt;&lt;/font&gt;" style="rounded=0;whiteSpace=wrap;html=1;fillColor=#b0e3e6;strokeColor=#0e8088;" vertex="1" parent="1">
          <mxGeometry x="685" y="869" width="119.5" height="30" as="geometry" />
        </mxCell>
        <mxCell id="SGGFD_9R_HXyIy6GRMr9-31" value="&lt;font face=&quot;noto_regular&quot;&gt;&lt;span style=&quot;font-size: 13.3333px&quot;&gt;Slight Variation of device&lt;/span&gt;&lt;/font&gt;" style="rounded=0;whiteSpace=wrap;html=1;fillColor=#b0e3e6;strokeColor=#0e8088;" vertex="1" parent="1">
          <mxGeometry x="685" y="903" width="119.5" height="32" as="geometry" />
        </mxCell>
        <mxCell id="SGGFD_9R_HXyIy6GRMr9-92" style="edgeStyle=orthogonalEdgeStyle;rounded=0;orthogonalLoop=1;jettySize=auto;html=1;entryX=0;entryY=0.5;entryDx=0;entryDy=0;fillColor=#dae8fc;strokeColor=#6c8ebf;" edge="1" parent="1" source="SGGFD_9R_HXyIy6GRMr9-33" target="SGGFD_9R_HXyIy6GRMr9-46">
          <mxGeometry relative="1" as="geometry" />
        </mxCell>
        <mxCell id="SGGFD_9R_HXyIy6GRMr9-94" style="edgeStyle=orthogonalEdgeStyle;rounded=0;orthogonalLoop=1;jettySize=auto;html=1;entryX=0;entryY=0.5;entryDx=0;entryDy=0;fillColor=#dae8fc;strokeColor=#6c8ebf;" edge="1" parent="1" source="SGGFD_9R_HXyIy6GRMr9-33" target="SGGFD_9R_HXyIy6GRMr9-48">
          <mxGeometry relative="1" as="geometry" />
        </mxCell>
        <mxCell id="SGGFD_9R_HXyIy6GRMr9-98" style="edgeStyle=orthogonalEdgeStyle;rounded=0;orthogonalLoop=1;jettySize=auto;html=1;entryX=0;entryY=0.5;entryDx=0;entryDy=0;fillColor=#dae8fc;strokeColor=#6c8ebf;" edge="1" parent="1" source="SGGFD_9R_HXyIy6GRMr9-33" target="SGGFD_9R_HXyIy6GRMr9-97">
          <mxGeometry relative="1" as="geometry" />
        </mxCell>
        <mxCell id="SGGFD_9R_HXyIy6GRMr9-33" value="&lt;p&gt;&lt;font face=&quot;noto_regular&quot;&gt;&lt;span style=&quot;font-size: 13.3333px&quot;&gt;Internal Environment&lt;/span&gt;&lt;/font&gt;&lt;br&gt;&lt;/p&gt;" style="rounded=0;whiteSpace=wrap;html=1;fillColor=#d5e8d4;strokeColor=#82b366;" vertex="1" parent="1">
          <mxGeometry x="525.5" y="939" width="120.5" height="30" as="geometry" />
        </mxCell>
        <mxCell id="SGGFD_9R_HXyIy6GRMr9-34" style="edgeStyle=orthogonalEdgeStyle;rounded=0;orthogonalLoop=1;jettySize=auto;html=1;entryX=0;entryY=0.5;entryDx=0;entryDy=0;fillColor=#dae8fc;strokeColor=#788AA3;" edge="1" parent="1" source="SGGFD_9R_HXyIy6GRMr9-37" target="SGGFD_9R_HXyIy6GRMr9-50">
          <mxGeometry relative="1" as="geometry" />
        </mxCell>
        <mxCell id="SGGFD_9R_HXyIy6GRMr9-35" style="edgeStyle=orthogonalEdgeStyle;rounded=0;orthogonalLoop=1;jettySize=auto;html=1;exitX=1;exitY=0.5;exitDx=0;exitDy=0;entryX=0;entryY=0.5;entryDx=0;entryDy=0;strokeColor=#788AA3;" edge="1" parent="1" source="SGGFD_9R_HXyIy6GRMr9-37" target="SGGFD_9R_HXyIy6GRMr9-38">
          <mxGeometry relative="1" as="geometry" />
        </mxCell>
        <mxCell id="SGGFD_9R_HXyIy6GRMr9-36" style="edgeStyle=orthogonalEdgeStyle;orthogonalLoop=1;jettySize=auto;html=1;entryX=0;entryY=0.5;entryDx=0;entryDy=0;shadow=0;fillColor=#dae8fc;rounded=0;strokeColor=#788AA3;" edge="1" parent="1" source="SGGFD_9R_HXyIy6GRMr9-37" target="SGGFD_9R_HXyIy6GRMr9-54">
          <mxGeometry relative="1" as="geometry" />
        </mxCell>
        <mxCell id="SGGFD_9R_HXyIy6GRMr9-93" style="edgeStyle=orthogonalEdgeStyle;rounded=0;orthogonalLoop=1;jettySize=auto;html=1;entryX=0;entryY=0.5;entryDx=0;entryDy=0;fillColor=#dae8fc;strokeColor=#6c8ebf;" edge="1" parent="1" source="SGGFD_9R_HXyIy6GRMr9-37" target="SGGFD_9R_HXyIy6GRMr9-56">
          <mxGeometry relative="1" as="geometry" />
        </mxCell>
        <mxCell id="SGGFD_9R_HXyIy6GRMr9-37" value="&lt;font face=&quot;Times New Roman&quot;&gt;User&amp;nbsp;&lt;span style=&quot;font-size: 10pt&quot;&gt;Authentication&lt;/span&gt;&lt;/font&gt;" style="rounded=0;whiteSpace=wrap;html=1;fontSize=13;fillColor=#dae8fc;strokeColor=#6c8ebf;" vertex="1" parent="1">
          <mxGeometry x="205" y="941" width="130" height="40" as="geometry" />
        </mxCell>
        <mxCell id="SGGFD_9R_HXyIy6GRMr9-38" value="&lt;font face=&quot;Times New Roman&quot;&gt;Representation Construction&lt;/font&gt;" style="rounded=0;whiteSpace=wrap;html=1;fontSize=13;fillColor=#e1d5e7;strokeColor=#9673a6;" vertex="1" parent="1">
          <mxGeometry x="375" y="981" width="110" height="30" as="geometry" />
        </mxCell>
        <mxCell id="SGGFD_9R_HXyIy6GRMr9-41" value="&lt;font face=&quot;Times New Roman&quot;&gt;Machine Learning&lt;/font&gt;" style="rounded=0;whiteSpace=wrap;html=1;fontSize=13;fillColor=#d5e8d4;strokeColor=#82b366;" vertex="1" parent="1">
          <mxGeometry x="524" y="1105" width="120.5" height="30" as="geometry" />
        </mxCell>
        <mxCell id="SGGFD_9R_HXyIy6GRMr9-42" value="&lt;font face=&quot;Times New Roman&quot;&gt;&lt;span style=&quot;font-size: 10pt&quot;&gt;Time-&lt;/span&gt;&lt;span style=&quot;font-size: 13.3333px&quot;&gt;domain&lt;/span&gt;&lt;br&gt;&lt;/font&gt;" style="rounded=0;whiteSpace=wrap;html=1;fillColor=#b0e3e6;strokeColor=#0e8088;" vertex="1" parent="1">
          <mxGeometry x="685" y="610" width="120" height="30" as="geometry" />
        </mxCell>
        <mxCell id="SGGFD_9R_HXyIy6GRMr9-43" value="&lt;font face=&quot;Times New Roman&quot;&gt;&lt;span style=&quot;font-size: 13.3333px&quot;&gt;Frequency-domain&lt;/span&gt;&lt;br&gt;&lt;/font&gt;" style="rounded=0;whiteSpace=wrap;html=1;fillColor=#b0e3e6;strokeColor=#0e8088;" vertex="1" parent="1">
          <mxGeometry x="685" y="644" width="120" height="30" as="geometry" />
        </mxCell>
        <mxCell id="SGGFD_9R_HXyIy6GRMr9-46" value="&lt;font face=&quot;noto_regular&quot;&gt;&lt;span style=&quot;font-size: 13.3333px&quot;&gt;Long-term&lt;/span&gt;&lt;/font&gt;" style="rounded=0;whiteSpace=wrap;html=1;fillColor=#b0e3e6;strokeColor=#0e8088;" vertex="1" parent="1">
          <mxGeometry x="684.5" y="939" width="119.5" height="30" as="geometry" />
        </mxCell>
        <mxCell id="SGGFD_9R_HXyIy6GRMr9-48" value="&lt;font face=&quot;noto_regular&quot;&gt;&lt;span style=&quot;font-size: 13.3333px&quot;&gt;Emotion&lt;/span&gt;&lt;/font&gt;" style="rounded=0;whiteSpace=wrap;html=1;fillColor=#b0e3e6;strokeColor=#0e8088;" vertex="1" parent="1">
          <mxGeometry x="684.5" y="973" width="119.5" height="30" as="geometry" />
        </mxCell>
        <mxCell id="SGGFD_9R_HXyIy6GRMr9-85" style="edgeStyle=orthogonalEdgeStyle;rounded=0;orthogonalLoop=1;jettySize=auto;html=1;fillColor=#dae8fc;strokeColor=#6c8ebf;" edge="1" parent="1" source="SGGFD_9R_HXyIy6GRMr9-50" target="SGGFD_9R_HXyIy6GRMr9-76">
          <mxGeometry relative="1" as="geometry" />
        </mxCell>
        <mxCell id="SGGFD_9R_HXyIy6GRMr9-86" style="edgeStyle=orthogonalEdgeStyle;rounded=0;orthogonalLoop=1;jettySize=auto;html=1;entryX=0;entryY=0.5;entryDx=0;entryDy=0;fillColor=#dae8fc;strokeColor=#6c8ebf;" edge="1" parent="1" source="SGGFD_9R_HXyIy6GRMr9-50" target="SGGFD_9R_HXyIy6GRMr9-75">
          <mxGeometry relative="1" as="geometry" />
        </mxCell>
        <mxCell id="SGGFD_9R_HXyIy6GRMr9-50" value="&lt;font face=&quot;Times New Roman&quot;&gt;Acquisition&amp;nbsp;&lt;/font&gt;" style="rounded=0;whiteSpace=wrap;html=1;fontSize=13;fillColor=#e1d5e7;strokeColor=#9673a6;" vertex="1" parent="1">
          <mxGeometry x="375" y="811" width="110" height="30" as="geometry" />
        </mxCell>
        <mxCell id="SGGFD_9R_HXyIy6GRMr9-51" value="&lt;font face=&quot;noto_regular&quot;&gt;&lt;span style=&quot;font-size: 13.3333px;&quot;&gt;Similarity&lt;/span&gt;&lt;/font&gt;" style="rounded=0;whiteSpace=wrap;html=1;fillColor=#d5e8d4;strokeColor=#82b366;" vertex="1" parent="1">
          <mxGeometry x="524.5" y="1047" width="120.5" height="30" as="geometry" />
        </mxCell>
        <mxCell id="SGGFD_9R_HXyIy6GRMr9-52" style="edgeStyle=orthogonalEdgeStyle;rounded=0;orthogonalLoop=1;jettySize=auto;html=1;entryX=0;entryY=0.5;entryDx=0;entryDy=0;shadow=0;fillColor=#dae8fc;strokeColor=#788AA3;" edge="1" parent="1">
          <mxGeometry relative="1" as="geometry">
            <mxPoint x="484" y="1091" as="sourcePoint" />
            <mxPoint x="524" y="1120" as="targetPoint" />
            <Array as="points">
              <mxPoint x="505" y="1091" />
              <mxPoint x="505" y="1120" />
            </Array>
          </mxGeometry>
        </mxCell>
        <mxCell id="SGGFD_9R_HXyIy6GRMr9-53" style="edgeStyle=orthogonalEdgeStyle;rounded=0;orthogonalLoop=1;jettySize=auto;html=1;entryX=0;entryY=0.5;entryDx=0;entryDy=0;shadow=0;fillColor=#dae8fc;strokeColor=#788AA3;" edge="1" parent="1" source="SGGFD_9R_HXyIy6GRMr9-54" target="SGGFD_9R_HXyIy6GRMr9-51">
          <mxGeometry relative="1" as="geometry">
            <Array as="points">
              <mxPoint x="505" y="1091" />
              <mxPoint x="505" y="1062" />
            </Array>
          </mxGeometry>
        </mxCell>
        <mxCell id="SGGFD_9R_HXyIy6GRMr9-54" value="&lt;font face=&quot;Times New Roman&quot;&gt;Authentication Model&lt;/font&gt;" style="rounded=0;whiteSpace=wrap;html=1;fontSize=13;fillColor=#e1d5e7;strokeColor=#9673a6;" vertex="1" parent="1">
          <mxGeometry x="375" y="1076" width="110" height="30" as="geometry" />
        </mxCell>
        <mxCell id="SGGFD_9R_HXyIy6GRMr9-58" style="edgeStyle=orthogonalEdgeStyle;rounded=0;orthogonalLoop=1;jettySize=auto;html=1;entryX=0;entryY=0.5;entryDx=0;entryDy=0;fillColor=#dae8fc;strokeColor=#6c8ebf;" edge="1" parent="1" source="SGGFD_9R_HXyIy6GRMr9-56" target="SGGFD_9R_HXyIy6GRMr9-33">
          <mxGeometry relative="1" as="geometry" />
        </mxCell>
        <mxCell id="SGGFD_9R_HXyIy6GRMr9-70" style="edgeStyle=orthogonalEdgeStyle;rounded=0;orthogonalLoop=1;jettySize=auto;html=1;entryX=0;entryY=0.5;entryDx=0;entryDy=0;fillColor=#dae8fc;strokeColor=#6c8ebf;" edge="1" parent="1" source="SGGFD_9R_HXyIy6GRMr9-56" target="SGGFD_9R_HXyIy6GRMr9-25">
          <mxGeometry relative="1" as="geometry" />
        </mxCell>
        <mxCell id="SGGFD_9R_HXyIy6GRMr9-56" value="&lt;span style=&quot;font-family: &amp;quot;Times New Roman&amp;quot;;&quot;&gt;Conditioning&lt;/span&gt;" style="rounded=0;whiteSpace=wrap;html=1;fontSize=13;fillColor=#e1d5e7;strokeColor=#9673a6;" vertex="1" parent="1">
          <mxGeometry x="375" y="889" width="110" height="30" as="geometry" />
        </mxCell>
        <mxCell id="SGGFD_9R_HXyIy6GRMr9-75" value="&lt;font face=&quot;noto_regular&quot;&gt;&lt;span style=&quot;font-size: 13.3333px;&quot;&gt;Contact&lt;/span&gt;&lt;/font&gt;" style="rounded=0;whiteSpace=wrap;html=1;fillColor=#d5e8d4;strokeColor=#82b366;" vertex="1" parent="1">
          <mxGeometry x="525" y="784.25" width="120" height="36" as="geometry" />
        </mxCell>
        <mxCell id="SGGFD_9R_HXyIy6GRMr9-76" value="&lt;font face=&quot;noto_regular&quot;&gt;&lt;span style=&quot;font-size: 13.3333px;&quot;&gt;Remote&lt;/span&gt;&lt;/font&gt;" style="rounded=0;whiteSpace=wrap;html=1;fillColor=#d5e8d4;strokeColor=#82b366;" vertex="1" parent="1">
          <mxGeometry x="525" y="827.75" width="120" height="36" as="geometry" />
        </mxCell>
        <mxCell id="SGGFD_9R_HXyIy6GRMr9-97" value="&lt;span style=&quot;font-family: noto_regular; font-size: 13.3333px;&quot;&gt;Exercise&lt;/span&gt;" style="rounded=0;whiteSpace=wrap;html=1;fillColor=#b0e3e6;strokeColor=#0e8088;" vertex="1" parent="1">
          <mxGeometry x="685.25" y="1008" width="119.5" height="30" as="geometry" />
        </mxCell>
      </root>
    </mxGraphModel>
  </diagram>
</mxfile>
